# Blender 4.2.0
# www.blender.org
mtllib WoodItem.mtl
o WoodBake
v -0.130856 -0.000000 -0.039040
v 0.129301 0.000000 -0.039040
v -0.130856 -0.027486 -0.027655
v 0.129301 -0.027486 -0.027655
v -0.130856 -0.038871 -0.000169
v 0.129301 -0.038871 -0.000169
v -0.130856 -0.027486 0.027317
v 0.129301 -0.027486 0.027317
v -0.130856 -0.000000 0.038702
v 0.129301 0.000000 0.038702
v -0.130856 0.027486 0.027317
v 0.129301 0.027486 0.027317
v -0.130856 0.038871 -0.000169
v 0.129301 0.038871 -0.000169
v -0.130856 0.027486 -0.027655
v 0.129301 0.027486 -0.027655
v -0.055911 -0.000000 -0.036059
v -0.055911 -0.027097 -0.024836
v -0.055911 -0.038321 0.002261
v -0.055911 -0.027097 0.029358
v -0.055911 -0.000000 0.040582
v -0.055911 0.027097 0.029358
v -0.055911 0.038321 0.002261
v -0.055911 0.027097 -0.024836
v 0.062031 0.000000 -0.044405
v 0.062031 -0.030638 -0.031714
v 0.062031 -0.043328 -0.001077
v 0.062031 -0.030638 0.029561
v 0.062031 0.000000 0.042251
v 0.062031 0.030638 0.029561
v 0.062031 0.043328 -0.001077
v 0.062031 0.030638 -0.031714
v 0.095666 0.000000 -0.042112
v 0.095666 -0.029337 -0.029960
v 0.095666 -0.041489 -0.000623
v 0.095666 -0.029337 0.028714
v 0.095666 0.000000 0.040866
v 0.095666 0.029337 0.028714
v 0.095666 0.041489 -0.000623
v 0.095666 0.029337 -0.029960
v -0.104857 -0.033078 -0.027511
v -0.111658 -0.042299 0.003905
v -0.112313 -0.026742 0.033498
v -0.106439 0.004481 0.043934
v -0.097476 0.033078 0.029098
v -0.090674 0.042299 -0.002317
v -0.090019 0.026742 -0.031911
v -0.095894 -0.004481 -0.042347
v -0.130856 -0.000000 -0.043919
v -0.130856 -0.030936 -0.031105
v 0.129301 -0.030936 -0.031105
v 0.129301 0.000000 -0.043919
v -0.130856 -0.043750 -0.000169
v 0.129301 -0.043750 -0.000169
v -0.130856 -0.030936 0.030767
v 0.129301 -0.030936 0.030767
v -0.130856 -0.000000 0.043581
v 0.129301 0.000000 0.043581
v -0.130856 0.030936 0.030767
v 0.129301 0.030936 0.030767
v -0.130856 0.043750 -0.000169
v 0.129301 0.043750 -0.000169
v -0.130856 0.030936 -0.031105
v 0.129301 0.030936 -0.031105
v -0.114587 -0.000000 -0.027823
v -0.114587 -0.019554 -0.019723
v -0.114587 -0.027653 -0.000169
v -0.114587 -0.019554 0.019385
v -0.114587 -0.000000 0.027484
v -0.114587 0.019554 0.019385
v -0.114587 0.027653 -0.000169
v -0.114587 0.019554 -0.019723
v 0.116921 -0.019554 -0.019723
v 0.116921 0.000000 -0.027823
v 0.116921 -0.027653 -0.000169
v 0.116921 -0.019554 0.019385
v 0.116921 0.000000 0.027484
v 0.116921 0.019554 0.019385
v 0.116921 0.027653 -0.000169
v 0.116921 0.019554 -0.019723
v -0.120219 -0.000000 -0.039040
v -0.120219 -0.027486 -0.027655
v -0.120219 -0.038871 -0.000169
v -0.120219 -0.027486 0.027317
v -0.120219 -0.000000 0.038702
v -0.120219 0.027486 0.027317
v -0.120219 0.038871 -0.000169
v -0.120219 0.027486 -0.027655
v 0.120377 -0.027486 -0.027655
v 0.120377 0.000000 -0.039040
v 0.120377 -0.038871 -0.000169
v 0.120377 -0.027486 0.027317
v 0.120377 0.000000 0.038702
v 0.120377 0.027486 0.027317
v 0.120377 0.038871 -0.000169
v 0.120377 0.027486 -0.027655
vn -0.0496 -0.3822 -0.9227
vn -0.0569 -0.9224 -0.3821
vn -0.0671 -0.9218 0.3818
vn -0.0744 -0.3816 0.9213
vn -0.0744 0.3816 0.9213
vn -0.0671 0.9218 0.3818
vn -0.0000 0.9239 -0.3827
vn -0.0569 0.9224 -0.3821
vn -0.0496 0.3822 -0.9227
vn -0.0000 -0.3827 0.9239
vn 0.1465 0.3314 -0.9321
vn 0.1188 0.8983 -0.4230
vn 0.1006 0.9355 0.3386
vn 0.0773 0.4123 0.9078
vn 0.0496 -0.3521 0.9346
vn 0.0512 -0.9028 0.4271
vn 0.0929 -0.9433 -0.3188
vn 0.1410 -0.4381 -0.8878
vn -0.0652 0.3819 -0.9219
vn -0.0500 0.9227 -0.3822
vn -0.0284 0.9235 0.3825
vn -0.0131 0.3827 0.9238
vn -0.0131 -0.3827 0.9238
vn -0.0284 -0.9235 0.3825
vn -0.0500 -0.9227 -0.3822
vn -0.0652 -0.3819 -0.9219
vn 0.0629 0.3819 -0.9221
vn 0.0556 0.9225 -0.3821
vn 0.0453 0.9229 0.3823
vn 0.0380 0.3824 0.9232
vn 0.0380 -0.3824 0.9232
vn 0.0453 -0.9229 0.3823
vn 0.0556 -0.9225 -0.3821
vn 0.0629 -0.3819 -0.9221
vn 0.0305 -0.4248 -0.9048
vn 0.0414 -0.9435 -0.3289
vn 0.0587 -0.9037 0.4242
vn 0.0036 -0.3506 0.9365
vn -0.0281 0.4245 0.9050
vn 0.0085 0.9425 0.3340
vn 0.0476 0.9046 -0.4235
vn 0.0491 0.3458 -0.9370
vn -1.0000 -0.0000 -0.0000
vn 1.0000 -0.0000 -0.0000
vn -0.0000 -0.9239 0.3827
vn -0.0000 -0.9239 -0.3827
vn -0.0000 -0.3827 -0.9239
vn -0.0000 0.3827 -0.9239
vn -0.0000 0.9239 0.3827
vn -0.0000 0.3827 0.9239
vn -0.8786 0.1827 0.4412
vn -0.8786 0.4412 0.1827
vn -0.8786 0.4412 -0.1827
vn -0.8786 0.1827 -0.4412
vn -0.8786 -0.1827 -0.4412
vn -0.8786 -0.4412 -0.1827
vn -0.8786 -0.4412 0.1827
vn -0.8786 -0.1827 0.4412
vn 0.9487 0.1210 0.2922
vn 0.9487 0.2922 0.1210
vn 0.9487 0.2922 -0.1210
vn 0.9487 0.1210 -0.2922
vn 0.9487 -0.1210 -0.2922
vn 0.9487 -0.2922 -0.1210
vn 0.9487 -0.2922 0.1210
vn 0.9487 -0.1210 0.2922
vt 0.169238 0.102703
vt 0.171257 0.001512
vt 0.243488 0.000064
vt 0.237736 0.101331
vt 0.251204 0.102822
vt 0.245467 0.001570
vt 0.315814 0.001725
vt 0.317915 0.102969
vt 0.416667 0.001075
vt 0.413556 0.102352
vt 0.488948 -0.000000
vt 0.482100 0.101333
vt 0.562671 0.101317
vt 0.559455 0.000000
vt 0.660313 0.000000
vt 0.658315 0.101317
vt 0.732441 0.000002
vt 0.726715 0.101319
vt 0.549707 0.937442
vt 0.548404 0.999993
vt 0.521528 1.000000
vt 0.522831 0.937450
vt 0.006833 0.101270
vt 0.000000 -0.000000
vt 0.070401 0.001485
vt 0.073595 0.102678
vt 0.489489 0.847887
vt 0.488948 0.783662
vt 0.520987 0.783658
vt 0.521528 0.847883
vt 0.083035 0.661942
vt 0.074138 0.558822
vt 0.162478 0.558845
vt 0.182035 0.679517
vt 0.006459 0.662570
vt 0.012473 0.557521
vt 0.668222 0.683106
vt 0.651348 0.557903
vt 0.714525 0.557905
vt 0.730965 0.662621
vt 0.571447 0.710105
vt 0.563006 0.557903
vt 0.497330 0.727802
vt 0.501249 0.557905
vt 0.333579 0.727433
vt 0.332665 0.559406
vt 0.421003 0.558836
vt 0.433996 0.728680
vt 0.257492 0.706909
vt 0.271048 0.559270
vt 0.225746 0.557577
vt 0.245467 0.705000
vt 0.071916 0.204105
vt 0.171800 0.204131
vt 0.002194 0.202634
vt 0.660915 0.202634
vt 0.732347 0.202636
vt 0.561030 0.202634
vt 0.415016 0.203698
vt 0.486599 0.202633
vt 0.484314 0.557895
vt 0.315136 0.204342
vt 0.245467 0.204188
vt 0.243334 0.202697
vt 0.171257 0.785003
vt 0.243488 0.783555
vt 0.250612 0.785181
vt 0.320959 0.785336
vt 0.421812 0.784686
vt 0.488948 0.783658
vt 0.559455 0.783656
vt 0.660313 0.783656
vt 0.732441 0.783658
vt 0.000000 0.783491
vt 0.070401 0.784976
vt 0.746019 0.076946
vt 0.746019 0.166562
vt 0.732441 0.172186
vt 0.732441 0.071322
vt 0.746019 0.410071
vt 0.809387 0.473439
vt 0.803763 0.487017
vt 0.732441 0.415695
vt 0.809387 0.013578
vt 0.803763 0.000000
vt 0.899003 0.473439
vt 0.904627 0.487017
vt 0.899003 0.013578
vt 0.904627 0.000000
vt 0.962371 0.410071
vt 0.975949 0.415695
vt 0.962371 0.076946
vt 0.975949 0.071322
vt 0.962371 0.320455
vt 0.975949 0.314830
vt 0.962371 0.166562
vt 0.975949 0.172186
vt 0.899003 0.257086
vt 0.904627 0.243508
vt 0.899003 0.229931
vt 0.904627 0.243508
vt 0.809387 0.257086
vt 0.803763 0.243508
vt 0.809387 0.229931
vt 0.803763 0.243508
vt 0.746019 0.320455
vt 0.732441 0.314830
vt 0.917575 0.627070
vt 0.872494 0.672151
vt 0.808740 0.672151
vt 0.763659 0.627070
vt 0.763659 0.563316
vt 0.808740 0.518235
vt 0.872494 0.518235
vt 0.917575 0.563316
vt 0.489489 0.937495
vt 0.521528 0.937491
vt 0.488948 0.999994
vt 0.520987 0.999991
vt 0.950096 0.551201
vt 0.948793 0.487025
vt 0.980826 0.487017
vt 0.982129 0.551192
vt 0.950096 0.640810
vt 0.982129 0.640801
vt 0.948793 0.703360
vt 0.980826 0.703352
vt 0.577129 0.847742
vt 0.577130 0.783658
vt 0.609170 0.783658
vt 0.609169 0.847742
vt 0.577130 0.937353
vt 0.609170 0.937352
vt 0.917575 0.779669
vt 0.917575 0.843423
vt 0.872494 0.888504
vt 0.808740 0.888504
vt 0.763659 0.843423
vt 0.763659 0.779669
vt 0.808740 0.734587
vt 0.872494 0.734588
vt 0.636053 0.783658
vt 0.636052 0.847742
vt 0.609170 0.847742
vt 0.609171 0.783658
vt 0.636053 0.937352
vt 0.609171 0.937353
vt 0.576588 0.783658
vt 0.577129 0.847883
vt 0.550248 0.847886
vt 0.549707 0.783661
vt 0.577129 0.937491
vt 0.550248 0.937494
vt 0.576588 0.999991
vt 0.549707 0.999994
vt 0.548404 0.783658
vt 0.549707 0.847834
vt 0.522831 0.847841
vt 0.521528 0.783665
vt 0.948793 0.640001
vt 0.885425 0.703369
vt 0.795809 0.703369
vt 0.732441 0.640001
vt 0.732441 0.550385
vt 0.795809 0.487017
vt 0.885425 0.487017
vt 0.948793 0.550385
vt 0.948793 0.766738
vt 0.948793 0.856354
vt 0.885425 0.703369
vt 0.795809 0.703369
vt 0.732441 0.766738
vt 0.732441 0.856354
vt 0.795809 0.919722
vt 0.885425 0.919722
s 0
usemtl WoodItem
f 33/1/1 52/2/1 51/3/1 34/4/1
f 34/5/2 51/6/2 54/7/2 35/8/2
f 35/8/3 54/7/3 56/9/3 36/10/3
f 36/10/4 56/9/4 58/11/4 37/12/4
f 37/13/5 58/14/5 60/15/5 38/16/5
f 38/16/6 60/15/6 62/17/6 39/18/6
f 8/19/7 6/20/7 91/21/7 92/22/7
f 39/23/8 62/24/8 64/25/8 40/26/8
f 40/26/9 64/25/9 52/2/9 33/1/9
f 15/27/10 1/28/10 81/29/10 88/30/10
f 47/31/11 24/32/11 17/33/11 48/34/11
f 46/35/12 23/36/12 24/32/12 47/31/12
f 45/37/13 22/38/13 23/39/13 46/40/13
f 44/41/14 21/42/14 22/38/14 45/37/14
f 43/43/15 20/44/15 21/42/15 44/41/15
f 42/45/16 19/46/16 20/47/16 43/48/16
f 41/49/17 18/50/17 19/46/17 42/45/17
f 48/34/18 17/33/18 18/51/18 41/52/18
f 24/32/19 32/53/19 25/54/19 17/33/19
f 23/36/20 31/55/20 32/53/20 24/32/20
f 22/38/21 30/56/21 31/57/21 23/39/21
f 21/42/22 29/58/22 30/56/22 22/38/22
f 20/47/23 28/59/23 29/60/23 21/61/23
f 19/46/24 27/62/24 28/59/24 20/47/24
f 18/50/25 26/63/25 27/62/25 19/46/25
f 17/33/26 25/54/26 26/64/26 18/51/26
f 32/53/27 40/26/27 33/1/27 25/54/27
f 31/55/28 39/23/28 40/26/28 32/53/28
f 30/56/29 38/16/29 39/18/29 31/57/29
f 29/58/30 37/13/30 38/16/30 30/56/30
f 28/59/31 36/10/31 37/12/31 29/60/31
f 27/62/32 35/8/32 36/10/32 28/59/32
f 26/63/33 34/5/33 35/8/33 27/62/33
f 25/54/34 33/1/34 34/4/34 26/64/34
f 49/65/35 48/34/35 41/52/35 50/66/35
f 50/67/36 41/49/36 42/45/36 53/68/36
f 53/68/37 42/45/37 43/48/37 55/69/37
f 55/70/38 43/43/38 44/41/38 57/71/38
f 57/71/39 44/41/39 45/37/39 59/72/39
f 59/72/40 45/37/40 46/40/40 61/73/40
f 61/74/41 46/35/41 47/31/41 63/75/41
f 63/75/42 47/31/42 48/34/42 49/65/42
f 3/76/43 1/77/43 49/78/43 50/79/43
f 2/80/44 4/81/44 51/82/44 52/83/44
f 5/84/43 3/76/43 50/79/43 53/85/43
f 4/81/44 6/86/44 54/87/44 51/82/44
f 7/88/43 5/84/43 53/85/43 55/89/43
f 6/86/44 8/90/44 56/91/44 54/87/44
f 9/92/43 7/88/43 55/89/43 57/93/43
f 8/90/44 10/94/44 58/95/44 56/91/44
f 11/96/43 9/92/43 57/93/43 59/97/43
f 10/94/44 12/98/44 60/99/44 58/95/44
f 13/100/43 11/96/43 59/97/43 61/101/43
f 12/98/44 14/102/44 62/103/44 60/99/44
f 15/104/43 13/100/43 61/101/43 63/105/43
f 14/102/44 16/106/44 64/107/44 62/103/44
f 1/77/43 15/104/43 63/105/43 49/78/43
f 16/106/44 2/80/44 52/83/44 64/107/44
f 65/108/43 66/109/43 67/110/43 68/111/43 69/112/43 70/113/43 71/114/43 72/115/43
f 13/116/45 15/27/45 88/30/45 87/117/45
f 11/118/46 13/116/46 87/117/46 86/119/46
f 9/120/47 11/121/47 86/122/47 85/123/47
f 7/124/48 9/120/48 85/123/48 84/125/48
f 5/126/7 7/124/7 84/125/7 83/127/7
f 3/128/49 5/129/49 83/130/49 82/131/49
f 1/132/50 3/128/50 82/131/50 81/133/50
f 73/134/44 74/135/44 80/136/44 79/137/44 78/138/44 77/139/44 76/140/44 75/141/44
f 6/142/49 4/143/49 89/144/49 91/145/49
f 4/143/50 2/146/50 90/147/50 89/144/50
f 2/148/10 16/149/10 96/150/10 90/151/10
f 16/149/45 14/152/45 95/153/45 96/150/45
f 14/152/46 12/154/46 94/155/46 95/153/46
f 12/156/47 10/157/47 93/158/47 94/159/47
f 10/157/48 8/19/48 92/22/48 93/158/48
f 66/109/51 65/108/51 81/160/51 82/161/51
f 67/110/52 66/109/52 82/161/52 83/162/52
f 68/111/53 67/110/53 83/162/53 84/163/53
f 69/112/54 68/111/54 84/163/54 85/164/54
f 70/113/55 69/112/55 85/164/55 86/165/55
f 71/114/56 70/113/56 86/165/56 87/166/56
f 72/115/57 71/114/57 87/166/57 88/167/57
f 65/108/58 72/115/58 88/167/58 81/160/58
f 74/135/59 73/134/59 89/168/59 90/169/59
f 73/134/60 75/141/60 91/170/60 89/168/60
f 75/141/61 76/140/61 92/171/61 91/170/61
f 76/140/62 77/139/62 93/172/62 92/171/62
f 77/139/63 78/138/63 94/173/63 93/172/63
f 78/138/64 79/137/64 95/174/64 94/173/64
f 79/137/65 80/136/65 96/175/65 95/174/65
f 80/136/66 74/135/66 90/169/66 96/175/66
