# Blender 4.1.1
# www.blender.org
mtllib Axe.mtl
o Axe
v 0.000000 6.742127 0.000000
v 0.000000 6.742127 -0.345727
v -0.244466 6.742127 -0.244466
v -0.345727 6.742127 0.000000
v -0.244466 6.742127 0.244466
v 0.000000 6.742127 0.345727
v 0.244466 6.742127 0.244466
v 0.345727 6.742127 0.000000
v 0.244466 6.742127 -0.244466
v -0.244466 9.267673 -0.244466
v 0.000000 9.267673 -0.345727
v -0.244466 16.392750 -0.244466
v -0.345727 9.267673 0.000000
v -0.244466 9.267673 0.244466
v 0.000000 9.267673 0.345727
v 0.244466 9.267673 0.244466
v 0.345727 9.267673 0.000000
v 0.244466 9.267673 -0.244466
v -0.244466 13.072085 -0.244466
v 0.000000 13.072085 -0.345727
v 0.000000 8.155362 -0.276379
v -0.345727 13.072085 0.000000
v -0.244466 13.072085 0.244466
v 0.000000 13.072085 0.345727
v 0.244466 13.072085 0.244466
v 0.345727 13.072085 0.000000
v 0.244466 13.072085 -0.244466
v 0.000000 16.392750 -0.345727
v 0.000000 16.392750 0.000000
v -0.345727 16.392750 0.000000
v -0.244466 16.392750 0.244466
v 0.000000 16.392750 0.345727
v 0.244466 16.392750 0.244466
v 0.345727 16.392750 0.000000
v 0.244466 16.392750 -0.244466
v 0.195430 8.155362 -0.195430
v 0.276379 8.155362 0.000000
v 0.195430 8.155362 0.195430
v -0.195430 8.155362 -0.195430
v 0.000000 8.155362 0.276379
v -0.195430 8.155362 0.195430
v -0.276379 8.155362 0.000000
v -0.152596 10.711446 0.000000
v -0.043345 10.711446 0.263755
v 0.220410 10.711446 0.373006
v -0.043345 10.711446 -0.263755
v 0.484165 10.711446 0.263755
v 0.593416 10.711446 0.000000
v 0.484165 10.711446 -0.263755
v 0.220410 10.711446 -0.373006
v -0.427815 16.200594 -0.427815
v -0.000000 16.200594 -0.605021
v -0.427815 14.157907 -0.427815
v -0.605021 16.200594 0.000000
v -0.427815 16.200594 0.427815
v -0.000000 16.200594 0.605021
v 0.427815 16.200594 0.427815
v 3.289974 16.200594 0.000000
v 0.427815 16.200594 -0.427815
v -0.000000 14.157907 -0.605021
v -0.605021 14.157907 0.000000
v -0.427815 14.157907 0.427815
v -0.000000 14.157907 0.605021
v 0.427815 14.157907 0.427815
v 3.289974 14.157907 0.000000
v 0.427815 14.157907 -0.427815
vn -0.0000 -1.0000 -0.0000
vn -0.9213 -0.0754 -0.3816
vn -0.9213 -0.0754 0.3816
vn -0.3826 -0.0250 0.9236
vn 0.3823 0.0464 0.9229
vn -0.3826 -0.0250 -0.9236
vn 0.9196 0.0965 0.3809
vn 0.9196 0.0965 -0.3809
vn 0.3823 0.0464 -0.9229
vn 0.3821 -0.0575 -0.9224
vn 0.9224 -0.0575 -0.3821
vn 0.9224 -0.0575 0.3821
vn -0.3821 -0.0575 -0.9224
vn 0.3821 -0.0575 0.9224
vn -0.3821 -0.0575 0.9224
vn -0.9224 -0.0575 0.3821
vn -0.9224 -0.0575 -0.3821
vn -0.9239 -0.0000 -0.3827
vn -0.9239 -0.0000 0.3827
vn -0.3827 -0.0000 0.9239
vn 0.3827 -0.0000 0.9239
vn -0.3827 -0.0000 -0.9239
vn 0.9239 -0.0000 0.3827
vn 0.9239 -0.0000 -0.3827
vn 0.3827 -0.0000 -0.9239
vn -0.0000 1.0000 -0.0000
vn -0.9229 0.0453 -0.3823
vn -0.9229 0.0453 0.3823
vn -0.3823 0.0453 0.9229
vn 0.3823 0.0453 0.9229
vn -0.3823 0.0453 -0.9229
vn 0.9229 0.0453 0.3823
vn 0.9229 0.0453 -0.3823
vn 0.3823 0.0453 -0.9229
vn 0.3816 -0.0757 -0.9212
vn 0.9125 -0.1565 -0.3780
vn 0.9125 -0.1565 0.3780
vn -0.3824 0.0409 -0.9231
vn 0.3816 -0.0757 0.9212
vn -0.3824 0.0409 0.9231
vn -0.9169 0.1227 0.3798
vn -0.9169 0.1227 -0.3798
vn -0.1478 -0.0000 -0.9890
vn -0.1478 -0.0000 0.9890
vt 0.361585 0.418854
vt 0.394677 0.405147
vt 0.394677 0.432561
vt 0.375292 0.385762
vt 0.347878 0.385762
vt 0.328493 0.405147
vt 0.328493 0.432561
vt 0.347878 0.451946
vt 0.375292 0.451946
vt 0.683060 0.588448
vt 0.662145 0.588595
vt 0.669802 0.344160
vt 0.689187 0.344024
vt 0.632568 0.588595
vt 0.642388 0.344161
vt 0.553559 0.588627
vt 0.526096 0.588592
vt 0.548964 0.344031
vt 0.574419 0.344063
vt 0.498911 0.588629
vt 0.523768 0.344065
vt 0.471727 0.588592
vt 0.444264 0.588627
vt 0.423404 0.344063
vt 0.448859 0.344031
vt 0.624911 0.588274
vt 0.595333 0.588274
vt 0.605154 0.344007
vt 0.632568 0.344007
vt 0.574419 0.588526
vt 0.585769 0.344242
vt 0.498911 0.588629
vt 0.474055 0.344065
vt 0.468912 0.853468
vt 0.448770 0.853441
vt 0.448859 0.738179
vt 0.474055 0.738213
vt 0.607903 0.853440
vt 0.592406 0.853628
vt 0.585769 0.738364
vt 0.605154 0.738129
vt 0.629818 0.853440
vt 0.632568 0.738129
vt 0.428421 0.853466
vt 0.423404 0.738211
vt 0.549053 0.853441
vt 0.528910 0.853468
vt 0.523768 0.738213
vt 0.548964 0.738179
vt 0.569402 0.853466
vt 0.574419 0.738211
vt 0.667053 0.853491
vt 0.645137 0.853491
vt 0.642388 0.738301
vt 0.669802 0.738301
vt 0.682549 0.853382
vt 0.689187 0.738165
vt 0.669802 0.000136
vt 0.689187 0.000000
vt 0.642388 0.000136
vt 0.548964 0.000000
vt 0.574419 0.000032
vt 0.523768 0.000034
vt 0.423404 0.000032
vt 0.448859 0.000000
vt 0.605154 0.000000
vt 0.632568 0.000000
vt 0.585769 0.000234
vt 0.474055 0.000034
vt 0.361585 0.485038
vt 0.394677 0.498745
vt 0.375292 0.518130
vt 0.347878 0.518130
vt 0.328493 0.498745
vt 0.328493 0.471331
vt 0.347878 0.451946
vt 0.375292 0.451946
vt 0.394677 0.471331
vt 0.689187 0.999814
vt 0.669802 0.999950
vt 0.642388 0.999950
vt 0.574419 0.999866
vt 0.548964 0.999834
vt 0.523768 0.999867
vt 0.448859 0.999834
vt 0.423404 0.999866
vt 0.632568 0.999766
vt 0.605154 0.999766
vt 0.585769 1.000000
vt 0.474055 0.999867
vt -0.000000 0.385694
vt 0.000073 0.341600
vt 0.211702 0.341669
vt 0.211628 0.385762
vt 0.294569 0.386172
vt 0.328493 0.385762
vt 0.328493 0.597376
vt 0.294569 0.597786
vt 0.423330 0.341600
vt 0.423404 0.385694
vt 0.211775 0.385762
vt 0.211702 0.341669
vt 0.000032 0.297054
vt -0.000000 -0.000000
vt 0.211628 0.000068
vt 0.211660 0.297122
vt 0.423404 -0.000000
vt 0.423372 0.297054
vt 0.211743 0.297122
vt 0.211775 0.000068
vt 0.000000 0.458747
vt 0.010040 0.411835
vt 0.050312 0.385762
vt 0.097224 0.395802
vt 0.123297 0.436073
vt 0.113257 0.482986
vt 0.026073 0.499019
vt 0.246594 0.458747
vt 0.220521 0.499019
vt 0.133337 0.482986
vt 0.123297 0.436073
vt 0.149370 0.395802
vt 0.196283 0.385762
vt 0.236554 0.411835
vt 0.246594 0.386172
vt 0.246594 0.597786
vt 0.123297 0.782642
vt 0.123297 0.782642
s 0
usemtl WoodOut
f 46/10/2 43/11/2 22/12/2 19/13/2
f 43/11/3 44/14/3 23/15/3 22/12/3
f 44/16/4 45/17/4 24/18/4 23/19/4
f 45/17/5 47/20/5 25/21/5 24/18/5
f 50/22/6 46/23/6 19/24/6 20/25/6
f 47/26/7 48/27/7 26/28/7 25/29/7
f 48/27/8 49/30/8 27/31/8 26/28/8
f 49/32/9 50/22/9 20/25/9 27/33/9
f 36/34/10 21/35/10 11/36/10 18/37/10
f 37/38/11 36/39/11 18/40/11 17/41/11
f 38/42/12 37/38/12 17/41/12 16/43/12
f 21/35/13 39/44/13 10/45/13 11/36/13
f 40/46/14 38/47/14 16/48/14 15/49/14
f 41/50/15 40/46/15 15/49/15 14/51/15
f 42/52/16 41/53/16 14/54/16 13/55/16
f 39/56/17 42/52/17 13/55/17 10/57/17
f 19/13/18 22/12/18 30/58/18 12/59/18
f 22/12/19 23/15/19 31/60/19 30/58/19
f 23/19/20 24/18/20 32/61/20 31/62/20
f 24/18/21 25/21/21 33/63/21 32/61/21
f 20/25/22 19/24/22 12/64/22 28/65/22
f 25/29/23 26/28/23 34/66/23 33/67/23
f 26/28/24 27/31/24 35/68/24 34/66/24
f 27/33/25 20/25/25 28/65/25 35/69/25
f 3/79/27 4/80/27 42/52/27 39/56/27
f 4/80/28 5/81/28 41/53/28 42/52/28
f 5/82/29 6/83/29 40/46/29 41/50/29
f 6/83/30 7/84/30 38/47/30 40/46/30
f 2/85/31 3/86/31 39/44/31 21/35/31
f 7/87/32 8/88/32 37/38/32 38/42/32
f 8/88/33 9/89/33 36/39/33 37/38/33
f 9/90/34 2/85/34 21/35/34 36/34/34
f 18/37/35 11/36/35 50/22/35 49/32/35
f 17/41/36 18/40/36 49/30/36 48/27/36
f 16/43/37 17/41/37 48/27/37 47/26/37
f 11/36/38 10/45/38 46/23/38 50/22/38
f 15/49/39 16/48/39 47/20/39 45/17/39
f 14/51/40 15/49/40 45/17/40 44/16/40
f 13/55/41 14/54/41 44/14/41 43/11/41
f 10/57/42 13/55/42 43/11/42 46/10/42
usemtl WoodIn
f 1/1/1 3/2/1 2/3/1
f 1/1/1 4/4/1 3/2/1
f 1/1/1 5/5/1 4/4/1
f 1/1/1 6/6/1 5/5/1
f 1/1/1 7/7/1 6/6/1
f 1/1/1 8/8/1 7/7/1
f 1/1/1 9/9/1 8/8/1
f 1/1/1 2/3/1 9/9/1
f 29/70/26 28/71/26 12/72/26
f 29/70/26 12/72/26 30/73/26
f 29/70/26 30/73/26 31/74/26
f 29/70/26 31/74/26 32/75/26
f 29/70/26 32/75/26 33/76/26
f 29/70/26 33/76/26 34/77/26
f 29/70/26 34/77/26 35/78/26
f 29/70/26 35/78/26 28/71/26
usemtl AxeHead
f 55/91/25 56/92/25 63/93/25 62/94/25
f 54/95/24 55/96/24 62/97/24 61/98/24
f 52/99/21 51/100/21 53/101/21 60/102/21
f 57/103/43 58/104/43 65/105/43 64/106/43
f 58/107/44 59/108/44 66/109/44 65/110/44
f 59/108/20 52/99/20 60/102/20 66/109/20
f 60/111/26 53/112/26 61/113/26 62/114/26 63/115/26 64/116/26 66/117/26
f 56/92/22 57/103/22 64/106/22 63/93/22
f 52/118/1 59/119/1 57/120/1 56/121/1 55/122/1 54/123/1 51/124/1
f 51/125/23 54/95/23 61/98/23 53/126/23
f 57/120/1 59/119/1 58/127/1
f 66/117/26 64/116/26 65/128/26
